<?xml version="1.0" encoding="UTF-8"?>
<!DOCTYPE svg PUBLIC "-//W3C//DTD SVG 1.1//EN" "http://www.w3.org/Graphics/SVG/1.1/DTD/svg11.dtd">
<!-- Creator: CorelDRAW -->
<svg xmlns="http://www.w3.org/2000/svg" xml:space="preserve" width="128px" height="128px" version="1.1" style="shape-rendering:geometricPrecision; text-rendering:geometricPrecision; image-rendering:optimizeQuality; fill-rule:evenodd; clip-rule:evenodd"
viewBox="0 0 5162000 5162000"
 xmlns:xlink="http://www.w3.org/1999/xlink"
 xmlns:xodm="http://www.corel.com/coreldraw/odm/2003">
 <defs>
  <style type="text/css">
   <![CDATA[
    .fil13 {fill:none}
    .fil0 {fill:#000717}
    .fil6 {fill:#0059D5}
    .fil4 {fill:#0B142B}
    .fil10 {fill:#120D0D}
    .fil8 {fill:#292733}
    .fil9 {fill:#BEA69C}
    .fil5 {fill:#E89F55}
    .fil12 {fill:#FB7716}
    .fil1 {fill:#FDC638}
    .fil11 {fill:#FE8202}
    .fil2 {fill:url(#id1)}
    .fil7 {fill:url(#id2)}
    .fil3 {fill:url(#id3)}
   ]]>
  </style>
   <clipPath id="id0">
    <path d="M1143000 0l2876000 0c629000,0 1143000,514000 1143000,1143000l0 2876000c0,629000 -514000,1143000 -1143000,1143000l-2876000 0c-629000,0 -1143000,-514000 -1143000,-1143000l0 -2876000c0,-629000 514000,-1143000 1143000,-1143000z"/>
   </clipPath>
  <linearGradient id="id1" gradientUnits="userSpaceOnUse" x1="2178000" y1="1809000" x2="2705000" y2="2491000">
   <stop offset="0" style="stop-opacity:1; stop-color:#0173F1"/>
   <stop offset="1" style="stop-opacity:1; stop-color:#018DEC"/>
  </linearGradient>
  <linearGradient id="id2" gradientUnits="userSpaceOnUse" x1="2490000" y1="859000" x2="2848000" y2="5061000">
   <stop offset="0" style="stop-opacity:1; stop-color:#018DEC"/>
   <stop offset="0.678431" style="stop-opacity:1; stop-color:#0180EE"/>
   <stop offset="1" style="stop-opacity:1; stop-color:#0173F1"/>
  </linearGradient>
  <radialGradient id="id3" gradientUnits="userSpaceOnUse" gradientTransform="matrix(-0.334976 0.642564 -1.40138 -1.32358 5.76732E+06 3.91464E+06)" cx="1978000" cy="2232000" r="1791000" fx="1978000" fy="2232000">
   <stop offset="0" style="stop-opacity:1; stop-color:#013688"/>
   <stop offset="0.309804" style="stop-opacity:1; stop-color:#0158AF"/>
   <stop offset="0.847059" style="stop-opacity:1; stop-color:#0166D0"/>
   <stop offset="1" style="stop-opacity:1; stop-color:#0173F1"/>
  </radialGradient>
 </defs>
 <g id="Camada_x0020_1">
  <metadata id="CorelCorpID_0Corel-Layer"/>
  <path class="fil0" d="M1143000 0l2876000 0c629000,0 1143000,514000 1143000,1143000l0 2876000c0,629000 -514000,1143000 -1143000,1143000l-2876000 0c-629000,0 -1143000,-514000 -1143000,-1143000l0 -2876000c0,-629000 514000,-1143000 1143000,-1143000z"/>
  <g style="clip-path:url(#id0)">
   <g id="_2817652525984">
    <path id="_1" class="fil1" d="M2653000 1209000c0,-5000 0,-14000 8000,-27000 8000,-14000 24000,-32000 41000,-44000 16000,-12000 34000,-18000 46000,-20000 13000,-2000 21000,1000 28000,4000 22000,10000 43000,21000 60000,33000 18000,11000 31000,24000 47000,44000 15000,21000 32000,50000 44000,76000 11000,27000 17000,51000 20000,84000 2000,33000 1000,75000 -3000,109000 -4000,34000 -10000,60000 -19000,84000 -9000,23000 -21000,44000 -31000,57000 -9000,13000 -17000,18000 -25000,23000 2000,-6000 4000,-12000 5000,-25000 2000,-13000 4000,-32000 -1000,-58000 -4000,-26000 -16000,-57000 -43000,-79000 -27000,-22000 -69000,-33000 -95000,-39000 -25000,-6000 -33000,-7000 -43000,-7000 -9000,0 -19000,1000 -33000,-3000 -13000,-5000 -31000,-14000 -46000,-22000 -15000,-8000 -27000,-15000 -37000,-20000 -10000,-6000 -17000,-10000 -23000,-13000 -6000,-4000 -11000,-6000 -17000,-11000 -6000,-4000 -12000,-10000 -13000,-15000 -1000,-5000 3000,-7000 14000,-9000 10000,-1000 27000,-1000 41000,2000 14000,2000 25000,6000 40000,11000 15000,5000 33000,11000 50000,17000 16000,6000 30000,12000 41000,16000 11000,5000 18000,8000 25000,11000 8000,3000 15000,6000 21000,8000 6000,1000 10000,2000 11000,2000 1000,0 0,-1000 -7000,-4000 -6000,-3000 -17000,-7000 -27000,-12000 -10000,-5000 -19000,-11000 -26000,-17000 -6000,-5000 -10000,-10000 -17000,-15000 -6000,-5000 -15000,-9000 -27000,-14000 -11000,-5000 -27000,-10000 -37000,-14000 -10000,-3000 -15000,-4000 -24000,-6000 -9000,-2000 -21000,-6000 -31000,-10000 -10000,-5000 -17000,-9000 -21000,-14000 -5000,-5000 -6000,-10000 -7000,-16000 0,-6000 0,-13000 4000,-19000 4000,-5000 12000,-10000 21000,-12000 10000,-3000 22000,-4000 34000,-4000 13000,0 26000,1000 34000,-1000 8000,-1000 11000,-5000 14000,-9000 2000,-4000 3000,-9000 3000,-12000 1000,-4000 1000,-5000 1000,-10000z"/>
    <path class="fil2" d="M2376000 1797000c0,9000 1000,18000 7000,35000 5000,16000 16000,39000 30000,62000 15000,23000 32000,47000 56000,74000 25000,28000 56000,60000 86000,94000 30000,33000 58000,67000 81000,99000 22000,31000 40000,60000 53000,87000 13000,27000 22000,54000 28000,79000 6000,26000 9000,51000 9000,78000 -1000,26000 -6000,56000 -14000,77000 -7000,21000 -16000,34000 -19000,35000 -3000,2000 0,-8000 3000,-19000 2000,-10000 5000,-23000 5000,-35000 1000,-13000 0,-27000 -4000,-44000 -3000,-18000 -9000,-39000 -17000,-58000 -8000,-20000 -18000,-39000 -27000,-55000 -9000,-15000 -18000,-27000 -26000,-37000 -8000,-10000 -16000,-17000 -21000,-21000 -5000,-5000 -7000,-6000 -6000,-4000 0,3000 3000,9000 8000,23000 6000,15000 13000,37000 16000,61000 4000,24000 4000,50000 2000,70000 -2000,21000 -5000,35000 -10000,52000 -5000,16000 -11000,36000 -18000,49000 -6000,14000 -12000,22000 -18000,28000 -5000,6000 -8000,8000 -14000,13000 -6000,5000 -13000,12000 -27000,20000 -14000,8000 -34000,17000 -49000,22000 -15000,5000 -25000,5000 -32000,4000 -7000,0 -11000,-2000 -15000,-14000 -3000,-12000 -5000,-35000 -5000,-50000 0,-15000 1000,-22000 1000,-30000 0,-7000 0,-16000 -2000,-31000 -1000,-16000 -3000,-37000 -6000,-56000 -3000,-18000 -7000,-32000 -12000,-46000 -4000,-15000 -8000,-29000 -15000,-45000 -7000,-17000 -18000,-37000 -28000,-55000 -10000,-17000 -20000,-32000 -29000,-44000 -9000,-12000 -17000,-21000 -29000,-36000 -11000,-16000 -25000,-37000 -38000,-58000 -12000,-21000 -22000,-40000 -33000,-68000 -12000,-27000 -23000,-62000 -30000,-87000 -7000,-25000 -9000,-40000 -6000,-56000 3000,-16000 10000,-32000 15000,-40000 5000,-9000 8000,-10000 10000,-6000 1000,4000 0,12000 2000,24000 1000,11000 4000,26000 10000,40000 6000,14000 15000,28000 23000,41000 9000,14000 18000,26000 29000,37000 10000,11000 22000,21000 32000,27000 10000,7000 18000,11000 21000,10000 3000,-2000 1000,-8000 -5000,-21000 -5000,-12000 -14000,-30000 -18000,-49000 -4000,-20000 -3000,-41000 -2000,-61000 1000,-21000 3000,-41000 5000,-56000 3000,-15000 6000,-24000 9000,-30000 4000,-6000 9000,-10000 15000,-14000 6000,-5000 12000,-10000 19000,-15000z"/>
    <path class="fil3" d="M1780000 1397000c39000,-43000 61000,-65000 78000,-82000 18000,-18000 32000,-29000 35000,-34000 3000,-4000 -5000,-2000 -18000,5000 -13000,6000 -31000,16000 -41000,20000 -11000,4000 -13000,2000 -9000,-3000 4000,-6000 16000,-15000 31000,-25000 15000,-10000 34000,-21000 41000,-25000 7000,-5000 3000,-3000 -7000,3000 -11000,6000 -28000,16000 -38000,20000 -10000,4000 -14000,2000 -13000,-2000 0,-4000 5000,-10000 15000,-18000 11000,-8000 28000,-17000 37000,-22000 8000,-6000 9000,-6000 -1000,-1000 -10000,5000 -30000,16000 -39000,19000 -10000,3000 -9000,-2000 -7000,-6000 2000,-4000 5000,-6000 30000,-20000 26000,-14000 75000,-41000 116000,-62000 40000,-21000 73000,-37000 103000,-52000 30000,-14000 58000,-27000 86000,-37000 29000,-9000 58000,-15000 80000,-18000 22000,-4000 36000,-5000 45000,-5000 10000,-1000 13000,-2000 16000,-3000 4000,0 7000,1000 14000,4000 6000,3000 18000,9000 25000,15000 7000,7000 10000,14000 14000,25000 4000,12000 8000,27000 10000,39000 3000,12000 5000,22000 7000,30000 2000,9000 6000,17000 10000,24000 4000,7000 9000,13000 14000,20000 6000,6000 12000,13000 19000,20000 8000,6000 17000,12000 26000,19000 10000,6000 20000,12000 30000,17000 11000,6000 23000,10000 32000,13000 9000,4000 16000,7000 21000,10000 5000,3000 8000,5000 11000,7000 15000,7000 30000,15000 41000,19000 10000,5000 15000,6000 20000,9000 4000,2000 8000,5000 11000,9000 2000,3000 3000,7000 3000,9000 -1000,2000 -4000,3000 -8000,4000 -4000,1000 -9000,0 -12000,0 -4000,0 -7000,-1000 -9000,-1000 -2000,-1000 -4000,-2000 -5000,-2000 -1000,0 -1000,0 -3000,-1000 -1000,-1000 -5000,-2000 -12000,-3000 -6000,0 -15000,0 -24000,0 -8000,0 -14000,1000 -19000,2000 -4000,1000 -6000,2000 -7000,3000 -1000,1000 -1000,3000 1000,5000 1000,2000 4000,5000 14000,12000 10000,6000 27000,16000 44000,25000 18000,9000 35000,17000 57000,25000 22000,7000 49000,14000 65000,18000 16000,4000 20000,5000 23000,6000 2000,0 3000,1000 4000,1000 -5000,-1000 -11000,-2000 -17000,-2000 -7000,0 -15000,1000 -22000,2000 -6000,1000 -11000,3000 -19000,6000 -8000,2000 -21000,6000 -39000,12000 -18000,5000 -41000,12000 -61000,19000 -21000,7000 -38000,14000 -54000,22000 -16000,8000 -30000,18000 -47000,32000 -16000,14000 -34000,33000 -48000,52000 -14000,18000 -23000,35000 -30000,52000 -8000,17000 -13000,33000 -16000,48000 -4000,16000 -7000,31000 -8000,49000 -2000,17000 -2000,37000 -2000,50000 0,13000 1000,19000 2000,23000 0,3000 -1000,4000 -2000,5000 -1000,1000 -1000,2000 -3000,6000 -1000,4000 -3000,10000 -7000,13000 -4000,3000 -10000,3000 -14000,7000 -5000,4000 -8000,11000 -11000,25000 -2000,15000 -5000,36000 -5000,62000 0,25000 3000,56000 10000,80000 6000,24000 16000,43000 26000,62000 -20000,-5000 -39000,-9000 -61000,-29000 -23000,-20000 -48000,-56000 -62000,-84000 -14000,-28000 -16000,-49000 -18000,-70000 -9000,23000 -17000,46000 -9000,86000 8000,41000 32000,99000 61000,148000 30000,49000 65000,90000 93000,132000 27000,42000 46000,86000 57000,130000 11000,45000 13000,90000 14000,125000 2000,36000 1000,61000 6000,74000 6000,13000 16000,14000 36000,8000 19000,-6000 47000,-19000 66000,-33000 20000,-13000 30000,-27000 40000,-49000 10000,-21000 21000,-50000 26000,-82000 5000,-31000 4000,-65000 0,-94000 -5000,-30000 -12000,-55000 -20000,-69000 -7000,-15000 -15000,-20000 -23000,-24000 11000,4000 22000,9000 37000,23000 15000,14000 35000,37000 50000,62000 15000,24000 25000,50000 33000,74000 8000,24000 12000,47000 13000,64000 1000,18000 -1000,29000 -3000,42000 -3000,12000 -7000,25000 -15000,45000 -9000,20000 -21000,48000 -40000,78000 -18000,30000 -42000,62000 -71000,94000 -29000,33000 -63000,65000 -97000,98000 8000,-11000 16000,-21000 28000,-44000 11000,-22000 27000,-56000 37000,-83000 11000,-27000 18000,-47000 21000,-70000 3000,-22000 3000,-46000 2000,-70000 -6000,15000 -12000,31000 -26000,59000 -15000,29000 -38000,71000 -70000,122000 -32000,51000 -72000,112000 -102000,171000 -31000,59000 -52000,117000 -64000,179000 -12000,61000 -15000,126000 -13000,182000 2000,56000 9000,104000 21000,149000 11000,45000 28000,87000 54000,136000 26000,49000 62000,106000 100000,154000 39000,49000 80000,89000 126000,126000 45000,37000 94000,70000 157000,107000 63000,37000 140000,77000 232000,108000 91000,31000 197000,52000 287000,61000 89000,9000 163000,6000 233000,-5000 69000,-11000 136000,-29000 203000,-55000 67000,-26000 134000,-59000 202000,-101000 68000,-41000 135000,-92000 189000,-139000 54000,-47000 95000,-90000 130000,-131000 35000,-41000 63000,-79000 82000,-108000 19000,-28000 28000,-47000 34000,-65000 6000,-18000 9000,-35000 11000,-47000 2000,-11000 2000,-16000 2000,-22000 1000,8000 1000,16000 1000,28000 -1000,13000 -3000,30000 -11000,54000 -8000,25000 -21000,57000 -38000,90000 -16000,33000 -35000,67000 -56000,100000 -20000,33000 -42000,65000 -72000,103000 -30000,38000 -68000,81000 -105000,121000 -38000,39000 -75000,75000 -116000,109000 -40000,34000 -85000,66000 -127000,93000 -43000,28000 -84000,51000 -121000,69000 -38000,19000 -72000,32000 -99000,42000 -27000,10000 -47000,15000 -67000,21000 8000,1000 16000,3000 34000,5000 18000,3000 46000,6000 80000,7000 34000,1000 75000,-2000 118000,-8000 43000,-6000 88000,-16000 132000,-29000 44000,-13000 86000,-29000 121000,-45000 34000,-16000 60000,-31000 80000,-43000 20000,-12000 34000,-21000 43000,-29000 10000,-9000 15000,-17000 21000,-26000 0,6000 -1000,11000 -8000,23000 -7000,11000 -20000,28000 -46000,51000 -25000,22000 -62000,50000 -103000,78000 -40000,27000 -85000,53000 -129000,74000 -43000,20000 -86000,34000 -127000,45000 -41000,11000 -81000,18000 -137000,25000 -56000,8000 -127000,14000 -200000,12000 -73000,-1000 -149000,-11000 -210000,-24000 -62000,-13000 -109000,-31000 -144000,-46000 -34000,-15000 -55000,-27000 -75000,-39000 19000,14000 38000,29000 72000,49000 34000,20000 84000,45000 146000,66000 62000,20000 136000,36000 208000,50000 72000,13000 142000,25000 197000,31000 56000,6000 96000,7000 119000,10000 24000,2000 29000,6000 35000,10000 -16000,9000 -31000,18000 -85000,35000 -54000,17000 -146000,41000 -232000,44000 -86000,4000 -165000,-15000 -233000,-35000 -68000,-20000 -125000,-41000 -173000,-61000 -49000,-21000 -89000,-40000 -127000,-60000 -38000,-20000 -74000,-41000 -95000,-55000 -22000,-14000 -30000,-22000 -38000,-29000 7000,14000 15000,28000 36000,50000 21000,23000 57000,55000 96000,84000 40000,29000 83000,56000 112000,75000 29000,19000 44000,28000 55000,38000 11000,10000 18000,19000 22000,30000 5000,10000 7000,22000 0,19000 -7000,-4000 -23000,-22000 -44000,-38000 -21000,-15000 -47000,-28000 -86000,-43000 -39000,-15000 -91000,-31000 -135000,-51000 -44000,-20000 -80000,-43000 -120000,-69000 -40000,-26000 -85000,-54000 -111000,-76000 -26000,-22000 -35000,-37000 -40000,-46000 -5000,-8000 -7000,-10000 -23000,-27000 -16000,-16000 -46000,-47000 -87000,-96000 -41000,-50000 -92000,-118000 -138000,-189000 -45000,-72000 -85000,-147000 -119000,-218000 -34000,-71000 -63000,-138000 -89000,-213000 -25000,-75000 -47000,-156000 -69000,-238000 0,20000 -1000,40000 0,61000 2000,22000 5000,45000 1000,18000 -3000,-27000 -13000,-105000 -18000,-149000 -5000,-45000 -6000,-56000 -9000,-53000 -3000,3000 -8000,21000 -16000,59000 -8000,38000 -20000,97000 -30000,142000 -10000,45000 -18000,77000 -26000,91000 -8000,14000 -16000,11000 -19000,6000 -3000,-5000 -1000,-12000 2000,-22000 2000,-10000 5000,-24000 8000,-38000 3000,-15000 5000,-31000 8000,-49000 3000,-17000 6000,-36000 8000,-51000 2000,-15000 4000,-26000 5000,-35000 0,-8000 1000,-13000 0,-12000 -1000,1000 -2000,8000 -4000,17000 -2000,10000 -3000,22000 -5000,33000 -1000,11000 -2000,21000 -4000,30000 -1000,10000 -2000,18000 -3000,29000 -2000,11000 -5000,25000 -7000,32000 -2000,7000 -5000,8000 -6000,-2000 -1000,-10000 0,-32000 1000,-55000 0,-22000 0,-46000 -1000,-63000 -1000,-16000 -1000,-24000 -2000,-27000 -1000,-3000 -3000,-1000 -3000,11000 -1000,13000 -1000,35000 -1000,51000 0,16000 0,24000 -1000,29000 -1000,5000 -4000,6000 -6000,5000 -2000,0 -5000,-4000 -7000,-12000 -2000,-9000 -3000,-23000 -5000,-39000 -2000,-17000 -4000,-35000 -5000,-46000 -2000,-11000 -3000,-14000 -4000,-12000 0,2000 0,9000 1000,22000 0,13000 2000,31000 1000,41000 0,11000 -1000,14000 -4000,14000 -2000,0 -5000,-2000 -8000,-8000 -3000,-6000 -5000,-15000 -7000,-26000 -2000,-11000 -4000,-24000 -6000,-33000 -2000,-8000 -3000,-12000 -5000,-14000 -1000,-1000 -2000,0 -1000,7000 0,7000 2000,20000 3000,29000 1000,9000 0,14000 -2000,15000 -2000,2000 -5000,0 -11000,-10000 -5000,-10000 -12000,-28000 -17000,-43000 -5000,-16000 -8000,-27000 -12000,-48000 -4000,-20000 -10000,-49000 -13000,-76000 -3000,-28000 -4000,-55000 -4000,-81000 1000,-27000 2000,-53000 6000,-81000 5000,-29000 12000,-59000 20000,-82000 7000,-23000 13000,-37000 20000,-50000 6000,-14000 13000,-27000 20000,-43000 8000,-15000 17000,-34000 23000,-48000 6000,-15000 9000,-26000 11000,-36000 2000,-9000 2000,-18000 2000,-27000 0,-9000 -1000,-19000 -1000,-24000 -1000,-6000 -1000,-7000 -2000,-7000 -2000,1000 -5000,3000 -9000,4000 -4000,1000 -9000,0 -12000,-3000 -3000,-3000 -3000,-9000 -3000,-21000 1000,-11000 3000,-28000 7000,-53000 4000,-25000 11000,-58000 19000,-91000 7000,-33000 17000,-65000 24000,-89000 8000,-25000 14000,-41000 19000,-57000 6000,-15000 11000,-30000 15000,-41000 4000,-12000 6000,-21000 9000,-28000 2000,-7000 3000,-12000 4000,-17000 1000,-4000 1000,-7000 0,-10000 -1000,-2000 -2000,-3000 -6000,-2000 -4000,2000 -9000,6000 -21000,18000 -12000,11000 -30000,30000 -48000,49000 -18000,20000 -35000,39000 -49000,60000 -15000,20000 -26000,40000 -37000,57000 -10000,18000 -20000,32000 -28000,43000 -8000,11000 -14000,19000 -24000,26000 -11000,8000 -26000,15000 -37000,18000 -11000,3000 -18000,1000 -18000,-14000 0,-15000 8000,-42000 16000,-67000 8000,-25000 17000,-47000 23000,-67000 7000,-21000 11000,-39000 23000,-73000 11000,-33000 29000,-83000 40000,-112000 10000,-29000 13000,-39000 15000,-45000 1000,-5000 1000,-7000 -3000,-4000 -4000,2000 -12000,9000 -27000,21000 -16000,13000 -40000,31000 -60000,45000 -20000,15000 -36000,25000 -50000,34000 -15000,9000 -27000,17000 -38000,24000 -10000,7000 -18000,12000 -25000,17000 -7000,4000 -14000,7000 -19000,8000 -4000,2000 -7000,1000 -5000,-5000 2000,-5000 9000,-16000 16000,-28000 6000,-12000 11000,-25000 19000,-41000 7000,-16000 17000,-34000 24000,-49000 7000,-15000 12000,-27000 20000,-48000 8000,-22000 20000,-54000 26000,-74000 7000,-20000 10000,-29000 14000,-45000 4000,-15000 10000,-37000 15000,-55000 4000,-17000 7000,-32000 10000,-46000 2000,-14000 5000,-27000 6000,-41000 2000,-14000 2000,-28000 5000,-41000 2000,-13000 7000,-25000 13000,-38000 5000,-13000 10000,-26000 15000,-36000 4000,-10000 9000,-16000 13000,-24000 5000,-9000 11000,-18000 17000,-30000 6000,-12000 12000,-26000 18000,-39000 5000,-13000 10000,-23000 14000,-32000 4000,-9000 7000,-16000 11000,-22000 5000,-7000 10000,-13000 14000,-20000 5000,-7000 9000,-15000 14000,-24000 4000,-9000 10000,-19000 15000,-29000 6000,-9000 13000,-19000 21000,-30000 8000,-10000 17000,-22000 26000,-35000 10000,-12000 20000,-24000 30000,-35000 9000,-10000 17000,-18000 23000,-25000 7000,-7000 12000,-12000 15000,-15000 3000,-3000 3000,-5000 1000,-5000 -1000,0 -4000,2000 -14000,11000 -10000,8000 -27000,24000 -42000,37000 -14000,13000 -25000,23000 -36000,35000 -11000,11000 -21000,23000 -30000,34000 -9000,10000 -17000,18000 -26000,28000 -9000,10000 -19000,22000 -26000,33000 -8000,10000 -12000,19000 -18000,28000 -5000,9000 -12000,16000 -17000,23000 -5000,7000 -8000,12000 -12000,17000 -3000,5000 -6000,11000 -9000,16000 -3000,5000 -5000,10000 -7000,16000 -3000,5000 -5000,11000 -7000,15000 -3000,5000 -5000,8000 -7000,8000 -2000,0 -3000,-2000 -2000,-7000 1000,-4000 3000,-10000 8000,-21000 4000,-11000 11000,-26000 15000,-38000 5000,-11000 7000,-19000 9000,-25000 2000,-7000 2000,-12000 2000,-16000 -1000,-4000 -2000,-6000 -5000,-8000 -3000,-2000 -7000,-3000 -15000,-4000 -8000,-1000 -20000,-3000 -29000,-3000 -10000,0 -18000,2000 -23000,3000 -5000,2000 -9000,5000 -13000,8000 -5000,4000 -10000,9000 -20000,18000 -10000,10000 -24000,24000 -42000,37000 -18000,13000 -40000,24000 -54000,29000 -14000,5000 -20000,3000 -16000,-13000 5000,-17000 20000,-48000 56000,-96000 37000,-47000 94000,-111000 133000,-154000z"/>
    <path class="fil4" d="M2290000 1013000c-2000,0 -4000,1000 -3000,0 0,-1000 2000,-4000 12000,-7000 10000,-4000 28000,-8000 61000,-6000 34000,2000 83000,9000 134000,44000 51000,34000 104000,95000 132000,129000 27000,35000 29000,44000 31000,52000 -3000,3000 -5000,6000 -7000,10000 -1000,4000 -2000,8000 -3000,13000 -16000,-2000 -31000,-4000 -54000,-5000 -23000,0 -52000,2000 -74000,3000 -22000,1000 -36000,1000 -46000,0 -9000,-1000 -13000,-4000 -14000,-7000 -1000,-2000 1000,-3000 6000,-3000 4000,0 12000,1000 19000,0 7000,0 14000,-2000 26000,-4000 12000,-2000 31000,-4000 41000,-5000 10000,-1000 13000,-1000 15000,-3000 1000,-3000 1000,-8000 1000,-17000 -1000,-9000 -2000,-22000 -6000,-36000 -4000,-14000 -11000,-29000 -18000,-40000 -7000,-11000 -14000,-17000 -19000,-21000 -4000,-3000 -6000,-2000 -4000,1000 2000,3000 7000,10000 12000,17000 5000,7000 10000,15000 12000,23000 1000,8000 0,16000 -2000,23000 -3000,6000 -8000,12000 -15000,15000 -6000,4000 -16000,6000 -27000,6000 -10000,0 -23000,-1000 -32000,-6000 -10000,-5000 -16000,-15000 -21000,-27000 -5000,-12000 -8000,-26000 -11000,-36000 -2000,-11000 -3000,-17000 -6000,-25000 -3000,-7000 -9000,-16000 -15000,-24000 -6000,-8000 -12000,-15000 -19000,-22000 -7000,-7000 -15000,-14000 -23000,-19000 -8000,-5000 -16000,-10000 -26000,-13000 -10000,-3000 -22000,-5000 -30000,-6000 -9000,-1000 -15000,-2000 -18000,-2000 -4000,-1000 -7000,-2000 -9000,-2000z"/>
    <path class="fil5" d="M2325000 1053000c7000,3000 19000,9000 27000,16000 9000,7000 14000,15000 19000,30000 5000,16000 9000,40000 14000,57000 4000,18000 8000,30000 18000,43000 9000,13000 25000,27000 39000,38000 15000,12000 30000,21000 48000,30000 18000,9000 40000,17000 63000,25000 -3000,-2000 -5000,-4000 -6000,-9000 -2000,-5000 -2000,-13000 1000,-20000 2000,-6000 9000,-12000 20000,-15000 10000,-3000 25000,-4000 39000,-4000 14000,1000 27000,2000 40000,4000 -16000,-3000 -32000,-7000 -47000,-8000 -15000,-2000 -29000,-3000 -47000,-1000 -19000,1000 -42000,3000 -56000,5000 -14000,2000 -19000,3000 -23000,1000 -4000,-1000 -8000,-4000 -12000,-7000 3000,1000 6000,2000 13000,2000 6000,-1000 16000,-1000 27000,-3000 11000,-1000 23000,-3000 33000,-5000 10000,-1000 18000,-2000 24000,-2000 6000,-1000 9000,-1000 12000,0 0,-6000 1000,-11000 1000,-20000 0,-8000 -1000,-19000 -3000,-29000 -2000,-11000 -5000,-20000 -8000,-29000 -4000,-8000 -9000,-17000 -14000,-24000 -6000,-8000 -13000,-15000 -19000,-19000 -5000,-4000 -10000,-5000 -12000,-5000 -2000,0 -3000,2000 -4000,4000 1000,0 2000,1000 6000,6000 4000,5000 11000,14000 14000,19000 4000,5000 4000,6000 6000,9000 1000,2000 2000,7000 3000,11000 1000,5000 1000,9000 0,14000 -1000,5000 -4000,10000 -9000,14000 -4000,4000 -11000,7000 -19000,9000 -8000,2000 -17000,2000 -26000,1000 -10000,-2000 -20000,-7000 -27000,-16000 -7000,-10000 -11000,-24000 -14000,-35000 -2000,-12000 -3000,-21000 -10000,-35000 -6000,-15000 -17000,-35000 -29000,-49000 -13000,-14000 -26000,-23000 -38000,-29000 -11000,-7000 -21000,-11000 -34000,-13000 -13000,-3000 -29000,-3000 -45000,-3000 -10000,-1000 -19000,-3000 -28000,1000 -8000,3000 -16000,12000 -16000,19000 0,7000 8000,13000 19000,16000 11000,3000 25000,4000 34000,4000 8000,0 12000,-1000 14000,-1000 3000,0 5000,0 12000,3000z"/>
    <path class="fil6" d="M1449000 3629000c-15000,-51000 -29000,-105000 -40000,-142000 -12000,-38000 -20000,-59000 -37000,-85000 -17000,-27000 -42000,-58000 -81000,-119000 -39000,-61000 -93000,-152000 -135000,-226000 -41000,-74000 -71000,-132000 -90000,-180000 -20000,-47000 -30000,-85000 -39000,-123000 31000,72000 62000,144000 98000,213000 37000,68000 78000,133000 111000,180000 33000,46000 57000,74000 81000,102000 3000,-7000 6000,-13000 3000,-43000 -3000,-29000 -12000,-82000 -17000,-121000 -4000,-38000 -5000,-62000 -2000,-83000 3000,-20000 8000,-38000 11000,-58000 4000,-20000 5000,-43000 2000,-81000 -3000,-37000 -10000,-89000 -10000,-128000 1000,-39000 8000,-65000 12000,-97000 5000,-32000 6000,-70000 3000,-90000 -3000,-20000 -9000,-21000 -17000,-24000 -7000,-3000 -16000,-7000 -33000,-30000 -16000,-24000 -41000,-67000 -63000,-116000 -23000,-50000 -43000,-106000 -58000,-169000 -14000,-64000 -22000,-135000 -27000,-205000 -4000,-70000 -5000,-139000 -4000,-202000 2000,-63000 6000,-121000 15000,-181000 9000,-61000 21000,-125000 34000,-189000 -13000,32000 -26000,65000 -40000,112000 -14000,46000 -28000,106000 -38000,158000 -10000,52000 -15000,95000 -17000,144000 -2000,48000 -1000,103000 0,158000 -7000,-22000 -15000,-43000 -19000,-94000 -6000,-50000 -8000,-130000 -6000,-203000 2000,-74000 10000,-143000 27000,-224000 17000,-80000 43000,-174000 71000,-256000 28000,-81000 57000,-152000 92000,-221000 36000,-69000 77000,-137000 125000,-206000 48000,-69000 102000,-139000 163000,-207000 62000,-67000 131000,-131000 219000,-194000 87000,-64000 192000,-128000 271000,-172000 79000,-44000 132000,-68000 187000,-89000 54000,-21000 109000,-38000 149000,-49000 40000,-11000 65000,-15000 90000,-20000 -30000,5000 -59000,9000 -84000,14000 -26000,5000 -47000,11000 -88000,24000 -42000,14000 -105000,36000 -170000,61000 -65000,25000 -133000,53000 -192000,82000 -60000,28000 -111000,57000 -162000,90000 -52000,33000 -104000,71000 -155000,111000 -51000,39000 -101000,81000 -167000,146000 -65000,65000 -146000,152000 -226000,262000 -81000,110000 -161000,243000 -212000,342000 -51000,99000 -72000,164000 -85000,201000 -12000,38000 -16000,49000 -19000,55000 -3000,6000 -6000,7000 -9000,9000 0,-3000 0,-6000 2000,-21000 2000,-15000 7000,-42000 16000,-77000 8000,-36000 20000,-79000 30000,-117000 10000,-38000 19000,-70000 39000,-119000 20000,-49000 51000,-117000 82000,-184000 -25000,39000 -50000,78000 -77000,127000 -27000,49000 -56000,109000 -77000,159000 -21000,51000 -35000,91000 -49000,153000 -13000,62000 -26000,145000 -31000,213000 -6000,68000 -4000,122000 1000,182000 5000,60000 13000,127000 21000,193000 -12000,-20000 -23000,-41000 -34000,-89000 -11000,-49000 -23000,-124000 -28000,-186000 -5000,-61000 -4000,-108000 3000,-156000 6000,-48000 19000,-96000 31000,-146000 -14000,30000 -29000,59000 -47000,111000 -18000,52000 -39000,126000 -57000,211000 -17000,84000 -31000,179000 -41000,272000 -9000,93000 -13000,184000 -11000,272000 3000,88000 11000,174000 22000,248000 12000,74000 25000,135000 50000,210000 24000,74000 59000,161000 102000,251000 43000,90000 95000,183000 160000,272000 65000,90000 144000,176000 226000,255000 83000,79000 169000,150000 214000,186000 44000,36000 48000,38000 54000,47000 6000,9000 15000,26000 24000,43000 -16000,-48000 -32000,-96000 -47000,-147000z"/>
    <path class="fil7" d="M2278000 701000c-25000,-36000 -50000,-73000 -59000,-124000 -10000,-51000 -4000,-116000 22000,-179000 25000,-63000 71000,-125000 124000,-163000 53000,-37000 115000,-51000 176000,-66000 -38000,27000 -77000,54000 -105000,101000 -27000,46000 -43000,113000 -44000,171000 -1000,59000 13000,109000 56000,167000 44000,58000 116000,123000 176000,178000 59000,56000 107000,103000 133000,149000 26000,46000 30000,91000 31000,117000 1000,26000 -1000,32000 -4000,40000 -2000,9000 -5000,19000 -8000,30000 -6000,0 -12000,0 -21000,1000 -9000,1000 -22000,3000 -38000,14000 -17000,11000 -37000,32000 -48000,48000 -10000,17000 -11000,28000 -12000,40000 -19000,-20000 -37000,-40000 -49000,-51000 -11000,-12000 -16000,-15000 -21000,-17000 -1000,-4000 -2000,-7000 -4000,-10000 -2000,-2000 -5000,-4000 -8000,-5000 -1000,-3000 -2000,-5000 -4000,-8000 -2000,-3000 -5000,-6000 -13000,-15000 -9000,-9000 -22000,-23000 -37000,-35000 -16000,-12000 -32000,-21000 -43000,-27000 -10000,-6000 -13000,-8000 -27000,-15000 -14000,-7000 -38000,-17000 -56000,-25000 -19000,-7000 -32000,-10000 -49000,-12000 -16000,-1000 -36000,0 -51000,5000 -16000,4000 -28000,12000 -34000,17000 -6000,5000 -6000,8000 -5000,9000 2000,2000 4000,4000 14000,5000 9000,1000 25000,2000 35000,4000 9000,1000 11000,3000 12000,5000 1000,2000 1000,5000 -10000,6000 -11000,1000 -33000,-1000 -55000,3000 -21000,4000 -41000,13000 -59000,19000 -18000,5000 -33000,7000 -88000,32000 -54000,26000 -147000,75000 -198000,102000 -50000,26000 -58000,31000 -60000,34000 -2000,4000 2000,6000 13000,1000 12000,-6000 32000,-19000 40000,-22000 9000,-4000 6000,1000 -6000,10000 -11000,9000 -31000,21000 -40000,28000 -8000,8000 -5000,10000 6000,6000 12000,-5000 32000,-17000 45000,-23000 13000,-7000 20000,-8000 4000,3000 -15000,10000 -51000,31000 -69000,44000 -17000,12000 -16000,15000 2000,7000 18000,-9000 51000,-30000 65000,-36000 13000,-5000 7000,4000 -9000,21000 -16000,17000 -42000,42000 -68000,71000 -27000,29000 -55000,64000 -89000,103000 -34000,39000 -74000,82000 -99000,113000 -25000,32000 -35000,51000 -40000,64000 -5000,13000 -5000,20000 9000,15000 15000,-5000 45000,-22000 67000,-40000 22000,-18000 35000,-37000 52000,-46000 17000,-9000 38000,-7000 54000,-4000 16000,2000 27000,5000 28000,18000 1000,12000 -8000,33000 -15000,52000 -7000,19000 -14000,36000 -20000,52000 14000,-31000 29000,-62000 54000,-98000 25000,-36000 61000,-77000 94000,-111000 33000,-35000 62000,-64000 82000,-79000 20000,-15000 30000,-16000 26000,-8000 -4000,8000 -22000,25000 -45000,53000 -24000,27000 -53000,65000 -80000,109000 -26000,45000 -52000,98000 -76000,145000 -24000,48000 -47000,91000 -57000,124000 -10000,34000 -6000,58000 -18000,113000 -11000,56000 -39000,144000 -65000,209000 -26000,66000 -51000,110000 -76000,154000 9000,-5000 19000,-11000 31000,-19000 12000,-8000 28000,-18000 48000,-31000 20000,-13000 46000,-29000 70000,-47000 25000,-18000 49000,-39000 63000,-49000 13000,-11000 17000,-12000 17000,-6000 1000,6000 -2000,19000 -22000,79000 -20000,60000 -57000,168000 -76000,228000 -20000,60000 -21000,73000 -14000,75000 8000,3000 23000,-6000 37000,-15000 13000,-9000 25000,-18000 37000,-38000 13000,-20000 27000,-50000 48000,-79000 20000,-29000 47000,-58000 66000,-78000 19000,-21000 31000,-33000 40000,-43000 10000,-9000 18000,-16000 23000,-18000 5000,-2000 8000,1000 10000,6000 2000,5000 3000,12000 -8000,47000 -11000,35000 -35000,97000 -53000,162000 -17000,65000 -28000,133000 -32000,167000 -4000,34000 -1000,33000 2000,33000 3000,0 6000,-1000 9000,-2000 3000,-1000 6000,-4000 8000,-2000 2000,1000 4000,5000 5000,22000 1000,17000 2000,46000 -16000,91000 -19000,44000 -57000,104000 -74000,179000 -16000,75000 -11000,165000 -2000,228000 9000,62000 22000,97000 30000,116000 8000,19000 12000,23000 11000,12000 0,-10000 -6000,-36000 -6000,-47000 0,-12000 6000,-9000 12000,7000 5000,15000 9000,43000 13000,59000 4000,17000 9000,21000 9000,8000 1000,-13000 -2000,-44000 -1000,-61000 1000,-16000 4000,-19000 8000,2000 3000,21000 6000,64000 10000,86000 3000,22000 7000,22000 8000,1000 1000,-21000 -1000,-65000 2000,-82000 2000,-18000 10000,-9000 12000,18000 2000,27000 -1000,74000 -1000,101000 0,27000 3000,34000 6000,10000 4000,-24000 7000,-79000 13000,-109000 5000,-30000 13000,-35000 10000,2000 -3000,37000 -17000,115000 -31000,193000 6000,-14000 12000,-28000 21000,-63000 9000,-35000 22000,-91000 31000,-134000 9000,-44000 14000,-74000 20000,-96000 6000,-22000 13000,-34000 18000,-39000 5000,-4000 8000,0 10000,24000 2000,24000 4000,69000 6000,99000 3000,31000 6000,47000 10000,77000 4000,29000 9000,72000 18000,118000 8000,46000 20000,94000 42000,158000 21000,63000 52000,142000 90000,217000 38000,75000 82000,147000 130000,210000 48000,63000 100000,118000 166000,173000 65000,55000 145000,111000 215000,155000 70000,44000 131000,76000 183000,98000 51000,22000 94000,34000 128000,50000 33000,16000 58000,37000 111000,72000 52000,35000 133000,85000 213000,134000 -10000,7000 -19000,13000 -63000,24000 -45000,11000 -123000,27000 -221000,23000 -99000,-3000 -217000,-25000 -309000,-53000 -92000,-27000 -158000,-60000 -224000,-92000 12000,20000 24000,39000 46000,75000 22000,35000 53000,86000 112000,149000 59000,62000 145000,135000 232000,209000 -42000,-8000 -84000,-17000 -175000,-55000 -90000,-38000 -229000,-106000 -358000,-199000 -129000,-92000 -247000,-209000 -316000,-284000 -69000,-75000 -89000,-109000 -110000,-143000 -4000,26000 -9000,53000 25000,129000 34000,77000 107000,203000 154000,279000 47000,75000 69000,100000 90000,125000 -26000,-13000 -53000,-26000 -124000,-101000 -72000,-75000 -189000,-212000 -268000,-325000 -80000,-113000 -122000,-202000 -166000,-328000 -45000,-125000 -92000,-287000 -138000,-453000 -47000,-166000 -93000,-335000 -130000,-474000 -36000,-140000 -62000,-250000 -79000,-388000 -17000,-138000 -25000,-305000 -16000,-469000 9000,-164000 35000,-325000 78000,-476000 44000,-151000 105000,-292000 176000,-408000 70000,-116000 151000,-209000 197000,-257000 47000,-50000 60000,-55000 73000,-69000 14000,-15000 27000,-37000 41000,-60000 -16000,-5000 -32000,-9000 -72000,1000 -41000,11000 -106000,38000 -157000,76000 -52000,38000 -91000,89000 -130000,139000 2000,-25000 3000,-51000 23000,-89000 20000,-38000 58000,-89000 89000,-125000 32000,-35000 57000,-56000 82000,-71000 25000,-16000 48000,-25000 72000,-34000 -56000,-13000 -113000,-25000 -157000,-45000 -44000,-20000 -75000,-49000 -93000,-70000 -19000,-21000 -26000,-35000 -30000,-47000 -3000,-13000 -4000,-24000 -5000,-35000 8000,7000 15000,15000 30000,26000 15000,11000 36000,25000 64000,35000 27000,9000 60000,13000 97000,10000 37000,-3000 77000,-12000 114000,-20000 37000,-8000 70000,-14000 92000,-19000 21000,-6000 31000,-10000 42000,-15000 -23000,-7000 -46000,-13000 -74000,-29000 -28000,-15000 -62000,-40000 -81000,-63000 -19000,-24000 -24000,-48000 -28000,-71000 7000,11000 14000,23000 23000,34000 10000,12000 22000,23000 32000,32000 10000,8000 18000,13000 27000,19000 9000,5000 20000,11000 41000,17000 22000,5000 54000,10000 84000,14000 30000,5000 58000,8000 85000,10000 26000,1000 50000,2000 75000,2000 -25000,-10000 -49000,-19000 -83000,-36000 -34000,-17000 -78000,-41000 -108000,-78000 -31000,-36000 -49000,-85000 -56000,-126000 -8000,-41000 -6000,-74000 -1000,-97000 5000,-23000 13000,-36000 21000,-48000 -3000,7000 -6000,15000 -9000,31000 -2000,16000 -4000,40000 3000,65000 8000,25000 24000,51000 53000,75000 30000,24000 72000,47000 123000,65000 51000,17000 110000,30000 147000,35000 37000,5000 51000,3000 66000,1000z"/>
    <path class="fil8" d="M2553000 1292000c15000,7000 30000,14000 38000,17000 8000,3000 9000,2000 19000,5000 11000,3000 30000,9000 47000,15000 16000,7000 30000,12000 38000,19000 7000,6000 9000,13000 22000,22000 13000,9000 37000,19000 61000,30000 -3000,1000 -7000,2000 -16000,0 -9000,-1000 -23000,-6000 -38000,-13000 -16000,-6000 -33000,-14000 -55000,-22000 -21000,-8000 -46000,-16000 -60000,-20000 -13000,-4000 -15000,-5000 -16000,-6000 6000,0 11000,1000 17000,2000 5000,0 11000,0 14000,-3000 2000,-3000 2000,-8000 -5000,-14000 -8000,-5000 -22000,-11000 -34000,-17000 -12000,-5000 -22000,-10000 -32000,-15000z"/>
    <path class="fil9" d="M2465000 1136000c-4000,-4000 -10000,-11000 -12000,-17000 -2000,-7000 1000,-13000 8000,-16000 6000,-3000 16000,-2000 24000,1000 8000,4000 14000,10000 18000,17000 3000,7000 3000,14000 -2000,17000 -5000,4000 -15000,5000 -21000,4000 -7000,0 -10000,-2000 -15000,-6000z"/>
    <path class="fil10" d="M2704000 1236000c11000,-2000 23000,-5000 31000,-6000 9000,-2000 14000,-1000 19000,-1000 5000,1000 9000,3000 12000,4000 3000,2000 5000,4000 7000,6000 -5000,-2000 -9000,-3000 -17000,-3000 -7000,0 -16000,1000 -25000,2000 -9000,1000 -18000,3000 -27000,5000 0,-2000 0,-4000 0,-7000z"/>
    <path class="fil11" d="M2426000 2984000c37000,1000 74000,2000 152000,-40000 78000,-41000 197000,-124000 261000,-173000 64000,-49000 73000,-63000 82000,-76000 -6000,19000 -12000,39000 -40000,83000 -27000,45000 -76000,114000 -138000,171000 -62000,57000 -137000,102000 -196000,125000 -60000,24000 -105000,26000 -130000,28000 -25000,1000 -29000,3000 -33000,13000 -3000,9000 -5000,26000 -6000,36000 -1000,9000 0,11000 0,13000 30000,1000 60000,3000 110000,-8000 49000,-10000 118000,-32000 171000,-57000 52000,-25000 89000,-54000 125000,-82000 -10000,14000 -20000,29000 -52000,55000 -32000,27000 -85000,65000 -140000,90000 -55000,25000 -111000,37000 -146000,42000 -36000,5000 -52000,4000 -68000,2000 2000,9000 3000,18000 4000,39000 1000,21000 1000,54000 9000,95000 9000,42000 26000,91000 54000,138000 27000,47000 66000,92000 98000,124000 31000,32000 56000,52000 94000,73000 37000,21000 89000,42000 146000,57000 57000,14000 120000,20000 166000,22000 46000,2000 75000,-1000 104000,-5000 28000,-5000 56000,-11000 83000,-18000 -24000,-7000 -49000,-15000 -87000,-37000 -38000,-21000 -89000,-57000 -125000,-88000 -35000,-31000 -55000,-58000 -65000,-79000 -11000,-21000 -11000,-37000 -12000,-53000 10000,19000 19000,37000 59000,61000 39000,23000 109000,51000 178000,64000 70000,13000 139000,11000 198000,3000 59000,-8000 107000,-22000 140000,-37000 34000,-14000 52000,-28000 71000,-42000 -24000,1000 -48000,1000 -85000,-6000 -37000,-7000 -87000,-22000 -131000,-39000 -44000,-18000 -83000,-38000 -108000,-55000 -25000,-18000 -37000,-34000 -50000,-50000 31000,22000 62000,43000 111000,59000 49000,17000 116000,29000 180000,32000 65000,3000 126000,-3000 184000,-20000 57000,-17000 111000,-45000 154000,-72000 43000,-28000 76000,-55000 97000,-76000 21000,-22000 31000,-38000 41000,-53000 -19000,15000 -37000,31000 -69000,40000 -33000,8000 -79000,10000 -139000,2000 -61000,-8000 -134000,-26000 -207000,-44000 35000,5000 69000,10000 116000,10000 46000,-1000 105000,-7000 161000,-16000 55000,-10000 107000,-22000 172000,-55000 65000,-34000 143000,-87000 206000,-143000 63000,-55000 110000,-112000 143000,-168000 34000,-56000 54000,-111000 75000,-166000 -40000,53000 -80000,106000 -134000,139000 -54000,33000 -123000,46000 -203000,56000 -80000,9000 -171000,15000 -258000,10000 -87000,-5000 -168000,-22000 -250000,-38000 60000,7000 120000,14000 201000,5000 81000,-9000 183000,-34000 275000,-71000 91000,-37000 172000,-84000 246000,-144000 73000,-59000 139000,-130000 184000,-198000 45000,-67000 68000,-131000 86000,-207000 18000,-75000 30000,-163000 42000,-250000 -22000,69000 -44000,138000 -104000,203000 -60000,64000 -159000,125000 -265000,172000 -105000,48000 -216000,83000 -310000,105000 -93000,22000 -167000,33000 -241000,43000 83000,-19000 166000,-38000 252000,-75000 85000,-37000 172000,-92000 257000,-163000 86000,-70000 171000,-157000 228000,-234000 57000,-78000 87000,-147000 107000,-220000 20000,-73000 30000,-149000 29000,-230000 -1000,-81000 -12000,-165000 -24000,-227000 -11000,-62000 -23000,-101000 -34000,-140000 4000,52000 8000,105000 -1000,161000 -9000,55000 -31000,114000 -86000,195000 -55000,81000 -143000,184000 -233000,269000 -91000,86000 -183000,155000 -268000,204000 -84000,49000 -159000,79000 -235000,109000 66000,-40000 132000,-80000 195000,-136000 64000,-56000 124000,-128000 189000,-220000 65000,-91000 133000,-202000 174000,-312000 42000,-109000 56000,-217000 51000,-318000 -5000,-102000 -29000,-197000 -55000,-262000 -26000,-64000 -54000,-99000 -82000,-133000 16000,32000 32000,65000 18000,151000 -15000,87000 -60000,228000 -127000,354000 -67000,126000 -156000,237000 -243000,336000 -88000,99000 -175000,186000 -245000,247000 -70000,62000 -123000,98000 -176000,135000 27000,-32000 54000,-64000 71000,-98000 17000,-34000 25000,-71000 32000,-108000 -10000,24000 -20000,48000 -68000,97000 -49000,48000 -136000,121000 -201000,168000 -66000,48000 -110000,71000 -167000,135000 -58000,64000 -128000,169000 -179000,266000 -50000,98000 -81000,187000 -134000,256000 -53000,69000 -129000,118000 -171000,156000 -42000,38000 -52000,66000 -61000,93000z"/>
    <path class="fil12" d="M1135000 3548000c26000,43000 74000,117000 139000,184000 64000,66000 145000,125000 193000,156000 49000,32000 64000,36000 74000,44000 9000,8000 12000,20000 18000,41000 5000,21000 12000,51000 21000,76000 9000,26000 19000,46000 30000,67000 -6000,-7000 -11000,-15000 -28000,-23000 -17000,-9000 -45000,-19000 -90000,-50000 -46000,-32000 -110000,-86000 -158000,-137000 -48000,-51000 -81000,-99000 -111000,-149000 -30000,-49000 -57000,-100000 -77000,-146000 -20000,-46000 -34000,-88000 -47000,-130000 5000,12000 10000,24000 36000,67000z"/>
   </g>
  </g>
  <path class="fil13" d="M1143000 0l2876000 0c629000,0 1143000,514000 1143000,1143000l0 2876000c0,629000 -514000,1143000 -1143000,1143000l-2876000 0c-629000,0 -1143000,-514000 -1143000,-1143000l0 -2876000c0,-629000 514000,-1143000 1143000,-1143000z"/>
 </g>
</svg>
